<svg width="800" height="600" viewBox="0 0 800 600" xmlns="http://www.w3.org/2000/svg">
  <!-- Frame -->
  <path d="M250 250 L550 250 M250 250 L450 400 M550 250 L450 400 M450 400 L600 380 M550 250 L600 380" stroke="red" stroke-width="5" fill="none" />
  <!-- Fork -->
  <path d="M250 250 L200 400" stroke="red" stroke-width="5" fill="none" />
  <!-- Wheels (Tires) -->
  <circle cx="200" cy="400" r="100" fill="black" />
  <circle cx="600" cy="400" r="100" fill="black" />
  <!-- Rims -->
  <circle cx="200" cy="400" r="95" stroke="silver" stroke-width="2" fill="none" />
  <circle cx="600" cy="400" r="95" stroke="silver" stroke-width="2" fill="none" />
  <!-- Spokes (Front Wheel) -->
  <line x1="200" y1="400" x2="200" y2="305" stroke="silver" stroke-width="1" />
  <line x1="200" y1="400" x2="200" y2="495" stroke="silver" stroke-width="1" />
  <line x1="200" y1="400" x2="105" y2="400" stroke="silver" stroke-width="1" />
  <line x1="200" y1="400" x2="295" y2="400" stroke="silver" stroke-width="1" />
  <!-- Spokes (Rear Wheel) -->
  <line x1="600" y1="400" x2="600" y2="305" stroke="silver" stroke-width="1" />
  <line x1="600" y1="400" x2="600" y2="495" stroke="silver" stroke-width="1" />
  <line x1="600" y1="400" x2="505" y2="400" stroke="silver" stroke-width="1" />
  <line x1="600" y1="400" x2="695" y2="400" stroke="silver" stroke-width="1" />
  <!-- Handlebars -->
  <rect x="240" y="240" width="20" height="10" fill="gray" />
  <!-- Seat -->
  <rect x="540" y="240" width="20" height="10" fill="brown" />
  <!-- Pedal -->
  <rect x="445" y="395" width="10" height="10" fill="black" />
  <!-- Chain -->
  <ellipse cx="525" cy="400" rx="75" ry="25" stroke="gray" stroke-width="2" fill="none" />
  <!-- Brakes -->
  <circle cx="220" cy="380" r="5" fill="gray" />
  <circle cx="580" cy="380" r="5" fill="gray" />
</svg>